<svg width="80" height="80" viewBox="0 0 80 80" fill="none" xmlns="http://www.w3.org/2000/svg">
<g clip-path="url(#clip0_207_1022)">
<path d="M28.8662 14.8716C30.1606 14.8716 31.21 13.8223 31.21 12.5279V7.80835C31.21 6.51397 30.1606 5.4646 28.8662 5.4646C27.5718 5.4646 26.5225 6.51397 26.5225 7.80835V12.5279C26.5225 13.8223 27.5718 14.8716 28.8662 14.8716Z" fill="#F87B80"/>
<path d="M7.60329 23.4507L3.51595 21.0909C2.39486 20.4434 0.961418 20.8278 0.314387 21.9487C-0.332801 23.0698 0.0512618 24.5032 1.1722 25.1503L5.25954 27.5101C6.37798 28.156 7.81251 27.7759 8.46111 26.6523C9.10829 25.5312 8.72423 24.0978 7.60329 23.4507Z" fill="#F87B80"/>
<path d="M5.25954 49.3563L1.1722 51.716C0.0512618 52.3632 -0.332801 53.7965 0.314387 54.9176C0.964855 56.0442 2.40032 56.4198 3.51595 55.7754L7.60329 53.4156C8.72423 52.7684 9.10829 51.3351 8.46111 50.214C7.81392 49.0932 6.38079 48.7087 5.25954 49.3563Z" fill="#F87B80"/>
<path d="M52.473 27.5101L56.5603 25.1503C57.6813 24.5031 58.0653 23.0698 57.4181 21.9487C56.7709 20.8278 55.3378 20.4434 54.2166 21.0909L50.1292 23.4507C49.0083 24.0979 48.6242 25.5312 49.2714 26.6523C49.9219 27.7789 51.3574 28.1545 52.473 27.5101Z" fill="#F87B80"/>
<path d="M62.3292 41.7605C59.6462 35.1305 53.1381 30.7467 45.9784 30.7776C43.0445 24.245 36.479 19.6831 28.8661 19.6831C18.5273 19.6831 10.1162 28.0944 10.1162 38.4331C10.1162 45.0661 13.58 50.9033 18.792 54.2373C13.2346 63.0167 19.5534 74.5269 29.9498 74.5269C66.8267 74.4884 64.8089 74.6212 65.4511 74.4219C73.6428 73.498 80.0001 66.5501 80.0001 58.1208C80.0001 48.4947 71.7748 41.0206 62.3292 41.7605ZM14.8037 38.4333C14.8037 30.6792 21.1121 24.3708 28.8662 24.3708C34.0951 24.3708 38.6639 27.2411 41.0867 31.4875C33.6806 33.6576 28.5382 40.419 28.4557 48.1765C26.1276 48.432 23.9325 49.3019 22.0418 50.7236C17.7286 48.319 14.8037 43.712 14.8037 38.4333ZM64.5645 69.7992C63.7296 69.867 42.4607 69.8276 29.9498 69.8395C22.2215 69.8395 18.4554 60.2598 24.2056 55.0089C25.9315 53.4328 28.2298 52.5942 30.7342 52.822C32.245 52.9583 33.4761 51.6512 33.2675 50.1626C32.1809 42.4078 38.1861 35.4645 46.0314 35.4645C51.8351 35.4645 56.9504 39.3711 58.4707 44.9647C58.7957 46.1598 59.9947 46.8953 61.207 46.6451C68.5121 45.1344 75.3126 50.7187 75.3126 58.1208C75.3126 64.1764 70.5915 69.3062 64.5645 69.7992Z" fill="#F87B80"/>
</g>
<defs>
<clipPath id="clip0_207_1022">
<rect width="80" height="80" fill="white"/>
</clipPath>
</defs>
</svg>
