<svg width="80" height="80" viewBox="0 0 80 80" fill="none" xmlns="http://www.w3.org/2000/svg">
<g id="education">
<path id="Vector" d="M59.5846 32.7413V50.2508C59.5846 51.874 58.8153 53.4011 57.511 54.3673C47.8499 61.5237 34.6461 61.5237 24.9851 54.3673C23.6807 53.4011 22.9115 51.874 22.9115 50.2508V33.9082M46.2489 26.4069L63.8928 31.7981C65.2948 32.2265 66.2525 33.5204 66.2525 34.9865V52.602M66.2525 58.7142V63.08M42.8852 38.5861L63.9296 31.2206C66.9063 30.1787 66.9063 25.969 63.9296 24.9271L42.8852 17.5615C40.7461 16.8129 38.4161 16.8129 36.277 17.5615L15.2326 24.9271C12.2558 25.969 12.2558 30.1787 15.2326 31.2206L36.277 38.5861C38.4161 39.3348 40.7461 39.3348 42.8852 38.5861Z" stroke="#F87B80" stroke-width="2" stroke-linecap="round" stroke-linejoin="round"/>
</g>
</svg>
