<svg width="80" height="80" viewBox="0 0 80 80" fill="none" xmlns="http://www.w3.org/2000/svg">
<g clip-path="url(#clip0_207_955)">
<path d="M39.9961 37.1581L35.2753 26.0171H30.5664V49.5912H35.2812V38.1097L40.0806 49.5912H44.7109V26.0171H39.9961V37.1581Z" fill="#F87B80"/>
<path d="M14.0645 49.5912H25.8515V44.8764H18.7793V40.1616H23.4941V35.4468H18.7793V30.7319H25.8515V26.0171H14.0645V49.5912Z" fill="#F87B80"/>
<path d="M66.6676 11.0559C51.9276 -3.68405 28.0676 -3.68657 13.3254 11.0559C-0.511369 24.8925 -1.20476 46.4475 10.4165 61.1285L5.39427 80L24.8148 72.2632C38.5062 78.2989 55.2516 75.8141 66.6676 64.3981C81.4077 49.6581 81.4099 25.7981 66.6676 11.0559ZM39.9964 70.7309C31.2737 70.7309 25.6275 67.3685 24.9596 67.1305L12.3628 72.1488L15.5998 59.9852C15.2907 59.4659 6.9926 51.4542 6.9926 37.7273C6.9926 19.5289 21.7981 4.72344 39.9964 4.72344C58.1947 4.72344 73.0002 19.5289 73.0002 37.7273C73.0002 55.9256 58.1947 70.7309 39.9964 70.7309Z" fill="#F87B80"/>
<path d="M57.6767 30.7319H65.9277V26.0171H57.6767C53.1272 26.0171 49.4258 29.6415 49.4258 34.1912V41.2634C49.4258 45.8129 53.1272 49.5912 57.6767 49.5912H65.9277V35.4468H58.8554V40.1616H61.2129V44.8764H57.6767C55.727 44.8764 54.1406 43.2133 54.1406 41.2634V34.1912C54.1406 32.2413 55.727 30.7319 57.6767 30.7319Z" fill="#F87B80"/>
</g>
<defs>
<clipPath id="clip0_207_955">
<rect width="80" height="80" fill="white"/>
</clipPath>
</defs>
</svg>
