<svg width="55" height="68" viewBox="0 0 55 68" fill="none" xmlns="http://www.w3.org/2000/svg">
<path d="M52.6665 22H39.3332C35.6513 22 32.6665 19.0152 32.6665 15.3333V1.99999M52.6665 21.4281V48.6667C52.6665 52.3486 49.6817 55.3333 45.9998 55.3333H19.3332C15.6513 55.3333 12.6665 52.3486 12.6665 48.6667V8.66666C12.6665 4.98476 15.6513 1.99999 19.3332 1.99999H33.2384C35.0065 1.99999 36.7022 2.70237 37.9525 3.95261L50.7139 16.714C51.9641 17.9643 52.6665 19.66 52.6665 21.4281Z" stroke="#F87B80" stroke-width="4" stroke-linecap="round" stroke-linejoin="round"/>
<path d="M12.6665 12H9.33317C5.65127 12 2.6665 14.9848 2.6665 18.6667V58.6667C2.6665 62.3486 5.65127 65.3333 9.33317 65.3333H35.9998C39.6817 65.3333 42.6665 62.3486 42.6665 58.6667V55.3333" stroke="#F87B80" stroke-width="4" stroke-linecap="round" stroke-linejoin="round"/>
</svg>
