<svg width="33" height="33" viewBox="0 0 33 33" fill="none" xmlns="http://www.w3.org/2000/svg">
<g id="Frame 812843">
<g id="Group">
<path id="Vector" d="M16.5 28.6455C23.2078 28.6455 28.6455 23.2078 28.6455 16.5C28.6455 9.79223 23.2078 4.35449 16.5 4.35449C9.79223 4.35449 4.35449 9.79223 4.35449 16.5C4.35449 23.2078 9.79223 28.6455 16.5 28.6455Z" fill="#C3D1DC"/>
<path id="Vector_2" d="M16.5 32C25.0604 32 32 25.0604 32 16.5C32 7.93959 25.0604 1 16.5 1C7.93959 1 1 7.93959 1 16.5C1 25.0604 7.93959 32 16.5 32Z" stroke="#C3D1DC" stroke-miterlimit="10"/>
<g id="Group_2">
<path id="Vector_3" d="M30.1495 17.2496C30.5634 17.2496 30.899 16.914 30.899 16.5C30.899 16.0861 30.5634 15.7505 30.1495 15.7505C29.7355 15.7505 29.3999 16.0861 29.3999 16.5C29.3999 16.914 29.7355 17.2496 30.1495 17.2496Z" fill="#C3D1DC"/>
<path id="Vector_4" d="M2.85063 17.2496C3.2646 17.2496 3.60018 16.914 3.60018 16.5C3.60018 16.0861 3.2646 15.7505 2.85063 15.7505C2.43666 15.7505 2.10107 16.0861 2.10107 16.5C2.10107 16.914 2.43666 17.2496 2.85063 17.2496Z" fill="#C3D1DC"/>
</g>
</g>
<path id="shape" d="M21.2121 14L16.6813 18.5308C16.0557 19.1564 15.0415 19.1564 14.4159 18.5308L13 17.1149" stroke="white" stroke-linecap="round" stroke-linejoin="round"/>
</g>
</svg>
