<svg width="32" height="32" viewBox="0 0 32 32" fill="none" xmlns="http://www.w3.org/2000/svg">
<path d="M15.9998 27.7537C22.4912 27.7537 27.7536 22.4914 27.7536 16C27.7536 9.5086 22.4912 4.24628 15.9998 4.24628C9.50842 4.24628 4.24609 9.5086 4.24609 16C4.24609 22.4914 9.50842 27.7537 15.9998 27.7537Z" fill="#2C3A5A"/>
<path d="M16 31C24.2843 31 31 24.2843 31 16C31 7.71573 24.2843 1 16 1C7.71573 1 1 7.71573 1 16C1 24.2843 7.71573 31 16 31Z" stroke="#2C3A5A" stroke-miterlimit="10"/>
<path d="M29.2097 16.7253C29.6104 16.7253 29.9351 16.4006 29.9351 16C29.9351 15.5994 29.6104 15.2746 29.2097 15.2746C28.8091 15.2746 28.4844 15.5994 28.4844 16C28.4844 16.4006 28.8091 16.7253 29.2097 16.7253Z" fill="#2C3A5A"/>
<path d="M2.79178 16.7253C3.19239 16.7253 3.51715 16.4006 3.51715 16C3.51715 15.5994 3.19239 15.2746 2.79178 15.2746C2.39116 15.2746 2.06641 15.5994 2.06641 16C2.06641 16.4006 2.39116 16.7253 2.79178 16.7253Z" fill="#2C3A5A"/>
<path d="M16 19.5508C17.9567 19.5508 19.5507 17.9567 19.5507 16C19.5507 14.0433 17.9567 12.4493 16 12.4493C14.0432 12.4493 12.4492 14.0433 12.4492 16C12.4492 17.9567 14.0432 19.5508 16 19.5508ZM13.3089 16C13.3089 14.5135 14.5179 13.309 16 13.309C17.4821 13.309 18.691 14.5179 18.691 16C18.691 17.4821 17.4821 18.6911 16 18.6911C14.5179 18.6911 13.3089 17.4821 13.3089 16Z" fill="white"/>
<path d="M19.5419 21.9015H12.4583C11.1285 21.9015 10.0449 20.8179 10.0449 19.4881V12.5119C10.0449 11.1821 11.1285 10.0985 12.4583 10.0985H19.5419C20.8718 10.0985 21.9554 11.1821 21.9554 12.5119V19.4881C21.9554 20.8179 20.8718 21.9015 19.5419 21.9015ZM12.4583 10.9806C11.6121 10.9806 10.927 11.6657 10.927 12.5119V19.4881C10.927 20.3343 11.6121 21.0194 12.4583 21.0194H19.5419C20.3882 21.0194 21.0733 20.3343 21.0733 19.4881V12.5119C21.0733 11.6657 20.3882 10.9806 19.5419 10.9806H12.4583Z" fill="white"/>
</svg>
