<svg width="80" height="80" viewBox="0 0 80 80" fill="none" xmlns="http://www.w3.org/2000/svg">
<g id="passport">
<path id="Vector" d="M28 60H51.3333M56.3333 35C56.3333 44.2048 48.8714 51.6667 39.6667 51.6667M56.3333 35C56.3333 25.7953 48.8714 18.3333 39.6667 18.3333M56.3333 35H23M39.6667 51.6667C30.4619 51.6667 23 44.2048 23 35M39.6667 51.6667C43.3486 51.6667 46.3333 44.2048 46.3333 35C46.3333 25.7953 43.3486 18.3333 39.6667 18.3333M39.6667 51.6667C35.9848 51.6667 33 44.2048 33 35C33 25.7953 35.9848 18.3333 39.6667 18.3333M23 35C23 25.7953 30.4619 18.3333 39.6667 18.3333M19.6667 10H59.6667C63.3486 10 66.3333 12.9848 66.3333 16.6667V63.3333C66.3333 67.0152 63.3486 70 59.6667 70H19.6667C15.9848 70 13 67.0152 13 63.3333V16.6667C13 12.9848 15.9848 10 19.6667 10Z" stroke="#F87B80" stroke-width="2" stroke-linecap="round" stroke-linejoin="round"/>
</g>
</svg>
