<svg width="40" height="40" viewBox="0 0 40 40" fill="none" xmlns="http://www.w3.org/2000/svg">
<path d="M31.6663 17.1078C31.6663 21.8515 25.7953 29.7075 22.3829 33.8731C21.1345 35.397 18.8648 35.397 17.6164 33.8731C14.204 29.7075 8.33301 21.8515 8.33301 17.1078C8.33301 10.4209 13.5564 5 19.9997 5C26.443 5 31.6663 10.4209 31.6663 17.1078Z" fill="white"/>
<path d="M24.3337 16.6668C24.3337 19.06 22.3936 21.0001 20.0003 21.0001C17.6071 21.0001 15.667 19.06 15.667 16.6668C15.667 14.2735 17.6071 12.3334 20.0003 12.3334C22.3936 12.3334 24.3337 14.2735 24.3337 16.6668Z" fill="white"/>
<path d="M31.6663 17.1078C31.6663 21.8515 25.7953 29.7075 22.3829 33.8731C21.1345 35.397 18.8648 35.397 17.6164 33.8731C14.204 29.7075 8.33301 21.8515 8.33301 17.1078C8.33301 10.4209 13.5564 5 19.9997 5C26.443 5 31.6663 10.4209 31.6663 17.1078Z" stroke="#C3D1DC" stroke-width="2" stroke-linecap="round" stroke-linejoin="round"/>
<path d="M24.3337 16.6668C24.3337 19.06 22.3936 21.0001 20.0003 21.0001C17.6071 21.0001 15.667 19.06 15.667 16.6668C15.667 14.2735 17.6071 12.3334 20.0003 12.3334C22.3936 12.3334 24.3337 14.2735 24.3337 16.6668Z" stroke="#C3D1DC" stroke-width="2" stroke-linecap="round" stroke-linejoin="round"/>
</svg>
