<svg width="64" height="64" viewBox="0 0 64 64" fill="none" xmlns="http://www.w3.org/2000/svg">
<path d="M21.7819 47.3383C24.9558 51.2573 29.0607 53.3865 33.6632 54.5587C36.1619 55.1959 42.6268 54.1066 44.2901 55.5685C47.794 58.7439 51.8142 60.7525 56.2798 61.7661C56.686 61.8572 57.1024 61.9155 57.5138 61.9793C58.0351 62.0614 58.4617 61.9064 58.7292 61.3815C58.9949 60.8565 58.8985 60.3789 58.5667 59.9451C58.1807 59.442 57.788 58.9426 57.3665 58.4795C56.1424 57.1404 55.1729 55.565 54.5031 53.8438C54.0228 52.6092 54.5592 51.2713 55.6097 50.4643C55.8317 50.2937 56.0511 50.1197 56.2663 49.9398C58.2756 48.2755 59.9447 46.285 60.9672 43.7548C62.6278 39.6534 62.2537 35.6944 60.0768 31.93C58.3699 28.9785 56.0381 26.8622 53.3059 25.3333M7.73367 29.9398C7.94894 30.1197 8.16829 30.2937 8.39032 30.4643C9.44079 31.2713 9.97724 32.6092 9.49687 33.8438C8.82713 35.565 7.85758 37.1404 6.63346 38.4795C6.21199 38.9425 5.81926 39.442 5.43332 39.9451C5.10155 40.3789 5.00506 40.8565 5.27082 41.3815C5.53828 41.9064 5.96486 42.0614 6.48621 41.9793C6.89758 41.9155 7.31398 41.8572 7.72024 41.7661C12.1858 40.7525 16.206 38.7439 19.7099 35.5685C21.3732 34.1065 27.8381 35.1959 30.3368 34.5587C34.9393 33.3865 39.0442 31.2573 42.2181 27.3383C46.1351 22.5005 46.384 15.9749 42.819 10.8707C40.3325 7.31438 36.9775 5.08506 33.1282 3.69604C26.5484 1.32087 19.9655 1.4485 13.4584 4.0278C9.53278 5.58267 6.18127 8.02547 3.92317 11.93C1.74628 15.6944 1.37222 19.6534 3.03278 23.7548C4.05534 26.285 5.7244 28.2755 7.73367 29.9398Z" stroke="#F87B80" stroke-width="4" stroke-linecap="round" stroke-linejoin="round"/>
</svg>
