<svg width="50" height="64" viewBox="0 0 50 64" fill="none" xmlns="http://www.w3.org/2000/svg">
<path d="M10.8333 43.6667H24.1667M10.8333 50.3333H34.1667M7.5 62H42.5C45.2614 62 47.5 59.7614 47.5 57V7C47.5 4.23858 45.2614 2 42.5 2H7.5C4.73858 2 2.5 4.23858 2.5 7V57C2.5 59.7614 4.73858 62 7.5 62ZM10.8333 2H25.8333V24.5C25.8333 25.3008 24.8138 25.6407 24.3333 25L22.3333 22.3333C20.3333 19.6667 16.3333 19.6667 14.3333 22.3333L12.3333 25C11.8528 25.6407 10.8333 25.3008 10.8333 24.5V2Z" stroke="#F87B80" stroke-width="4" stroke-linecap="round" stroke-linejoin="round"/>
</svg>
