<svg width="58" height="51" viewBox="0 0 58 51" fill="none" xmlns="http://www.w3.org/2000/svg">
<path d="M49.0846 17.7413V35.2508C49.0846 36.874 48.3153 38.4011 47.011 39.3673C37.3499 46.5237 24.1461 46.5237 14.4851 39.3673C13.1807 38.4011 12.4115 36.874 12.4115 35.2508V18.9082M35.7489 11.4069L53.3928 16.7981C54.7948 17.2264 55.7525 18.5204 55.7525 19.9865V37.602M55.7525 43.7142V48.08M32.3852 23.5861L53.4296 16.2206C56.4063 15.1787 56.4063 10.9689 53.4296 9.92709L32.3852 2.56154C30.2461 1.81285 27.9161 1.81285 25.777 2.56154L4.73256 9.92709C1.75582 10.9689 1.75581 15.1787 4.73256 16.2206L25.777 23.5861C27.9161 24.3348 30.2461 24.3348 32.3852 23.5861Z" stroke="#F87B80" stroke-width="4" stroke-linecap="round" stroke-linejoin="round"/>
</svg>
