<svg width="58" height="64" viewBox="0 0 58 64" fill="none" xmlns="http://www.w3.org/2000/svg">
<path d="M17 52H40.3333M45.3333 27C45.3333 36.2048 37.8714 43.6667 28.6667 43.6667M45.3333 27C45.3333 17.7953 37.8714 10.3333 28.6667 10.3333M45.3333 27H12M28.6667 43.6667C19.4619 43.6667 12 36.2048 12 27M28.6667 43.6667C32.3486 43.6667 35.3333 36.2048 35.3333 27C35.3333 17.7953 32.3486 10.3333 28.6667 10.3333M28.6667 43.6667C24.9848 43.6667 22 36.2048 22 27C22 17.7953 24.9848 10.3333 28.6667 10.3333M12 27C12 17.7953 19.4619 10.3333 28.6667 10.3333M8.66667 2.00002H48.6667C52.3486 2.00002 55.3333 4.98478 55.3333 8.66668V55.3333C55.3333 59.0152 52.3486 62 48.6667 62H8.66667C4.98477 62 2 59.0152 2 55.3333V8.66668C2 4.98478 4.98477 2.00002 8.66667 2.00002Z" stroke="#F87B80" stroke-width="4" stroke-linecap="round" stroke-linejoin="round"/>
</svg>
