<svg width="50" height="63" viewBox="0 0 50 63" fill="none" xmlns="http://www.w3.org/2000/svg">
<path d="M48.3327 25.2156C48.3327 34.7029 36.5907 50.4151 29.7659 58.7461C27.269 61.794 22.7297 61.794 20.2328 58.7461C13.408 50.4151 1.66602 34.7029 1.66602 25.2156C1.66602 11.8417 12.1127 0.999939 24.9994 0.999939C37.886 0.999939 48.3327 11.8417 48.3327 25.2156Z" stroke="white" stroke-width="2" stroke-linecap="round" stroke-linejoin="round"/>
<path d="M33.6673 24.3335C33.6673 29.1199 29.7871 33.0001 25.0006 33.0001C20.2142 33.0001 16.334 29.1199 16.334 24.3335C16.334 19.547 20.2142 15.6668 25.0006 15.6668C29.7871 15.6668 33.6673 19.547 33.6673 24.3335Z" stroke="white" stroke-width="2" stroke-linecap="round" stroke-linejoin="round"/>
</svg>
