<svg width="32" height="32" viewBox="0 0 32 32" fill="none" xmlns="http://www.w3.org/2000/svg">
<path d="M15.9998 27.7537C22.4912 27.7537 27.7536 22.4914 27.7536 16C27.7536 9.5086 22.4912 4.24628 15.9998 4.24628C9.50842 4.24628 4.24609 9.5086 4.24609 16C4.24609 22.4914 9.50842 27.7537 15.9998 27.7537Z" fill="#2C3A5A"/>
<path d="M16 31C24.2843 31 31 24.2843 31 16C31 7.71573 24.2843 1 16 1C7.71573 1 1 7.71573 1 16C1 24.2843 7.71573 31 16 31Z" stroke="#2C3A5A" stroke-miterlimit="10"/>
<path d="M29.2098 16.7253C29.6104 16.7253 29.9351 16.4006 29.9351 16C29.9351 15.5994 29.6104 15.2746 29.2098 15.2746C28.8091 15.2746 28.4844 15.5994 28.4844 16C28.4844 16.4006 28.8091 16.7253 29.2098 16.7253Z" fill="#2C3A5A"/>
<path d="M2.79178 16.7253C3.1924 16.7253 3.51715 16.4006 3.51715 16C3.51715 15.5994 3.1924 15.2746 2.79178 15.2746C2.39117 15.2746 2.06641 15.5994 2.06641 16C2.06641 16.4006 2.39117 16.7253 2.79178 16.7253Z" fill="#2C3A5A"/>
<path d="M16.9763 13.8761H17.4763H18.5111L18.3643 15.5H16.8733H16.3733V16V22.0597H14.7494V16V15.5H14.2494H13.4375V13.8761H14.236H14.736V13.3761V12.1896C14.736 11.718 14.8512 11.1483 15.1762 10.7096C15.4821 10.2967 16.0164 9.94057 16.9976 9.94031C16.998 9.94031 16.9983 9.94031 16.9987 9.94031L18.527 9.94706V11.197H17.5539C17.3621 11.197 17.0914 11.2443 16.8592 11.4346C16.6081 11.6403 16.4763 11.9519 16.4763 12.3284V13.3761H16.9718V13.8761H16.9763Z" fill="white" stroke="white"/>
</svg>
