<svg width="80" height="80" viewBox="0 0 80 80" fill="none" xmlns="http://www.w3.org/2000/svg">
<path d="M66.6665 30H53.3332C49.6513 30 46.6665 27.0152 46.6665 23.3333V9.99999M66.6665 29.4281V56.6667C66.6665 60.3486 63.6817 63.3333 59.9998 63.3333H33.3332C29.6513 63.3333 26.6665 60.3486 26.6665 56.6667V16.6667C26.6665 12.9848 29.6513 9.99999 33.3332 9.99999H47.2384C49.0065 9.99999 50.7022 10.7024 51.9525 11.9526L64.7139 24.714C65.9641 25.9643 66.6665 27.66 66.6665 29.4281Z" stroke="#F87B80" stroke-width="4" stroke-linecap="round" stroke-linejoin="round"/>
<path d="M26.6665 20H23.3332C19.6513 20 16.6665 22.9848 16.6665 26.6667V66.6667C16.6665 70.3486 19.6513 73.3333 23.3332 73.3333H49.9998C53.6817 73.3333 56.6665 70.3486 56.6665 66.6667V63.3333" stroke="#F87B80" stroke-width="4" stroke-linecap="round" stroke-linejoin="round"/>
</svg>
