<svg width="80" height="80" viewBox="0 0 80 80" fill="none" xmlns="http://www.w3.org/2000/svg">
<mask id="mask0_207_915" style="mask-type:luminance" maskUnits="userSpaceOnUse" x="0" y="0" width="80" height="80">
<path d="M0 7.62939e-06H80V80H0V7.62939e-06Z" fill="white"/>
</mask>
<g mask="url(#mask0_207_915)">
<path d="M63.4375 40C63.4375 52.9442 52.9442 63.4375 40 63.4375C27.0558 63.4375 16.5625 52.9442 16.5625 40C16.5625 27.0558 27.0558 16.5625 40 16.5625C52.9442 16.5625 63.4375 27.0558 63.4375 40Z" stroke="#F87B80" stroke-width="4.43359" stroke-miterlimit="10" stroke-linecap="round" stroke-linejoin="round"/>
<path d="M51.7188 32.9688L37.6562 47.0312L28.2812 37.6563" stroke="#F87B80" stroke-width="4.43359" stroke-miterlimit="10" stroke-linecap="round" stroke-linejoin="round"/>
<path d="M36.9603 3.4629C38.7122 1.97071 41.2878 1.97071 43.0397 3.4629L49.1308 8.83868L59.4384 8.04103C61.7328 7.86353 63.8167 9.37743 64.3567 11.6143L66.4233 20.1731L75.4294 25.564C77.3898 26.769 78.1858 29.2187 77.308 31.3457L73.75 39.9671L77.308 48.5885C78.1858 50.7157 77.3898 53.1654 75.4294 54.3704L66.4233 59.7613L64.3567 68.3201C63.8167 70.5568 61.7328 72.0709 59.4384 71.8934L49.2316 71.1034L43.0397 76.5371C41.2878 78.0293 38.7122 78.0293 36.9603 76.5371L30.7684 71.1034L20.5616 71.8934C18.2672 72.0709 16.1833 70.5568 15.6433 68.3201L13.5684 59.7274L4.5775 54.3704C2.61687 53.1654 1.82094 50.7157 2.69891 48.5885L6.25672 39.9671L2.69891 31.3457C1.82094 29.2187 2.61687 26.769 4.5775 25.564L12.7978 20.6804L15.6433 11.6143C16.1833 9.37743 18.2672 7.86353 20.5616 8.04103L30.8694 8.83868L36.9603 3.4629Z" stroke="#F87B80" stroke-width="4.43359" stroke-miterlimit="10" stroke-linecap="round" stroke-linejoin="round"/>
</g>
</svg>
