<svg width="717" height="733" viewBox="0 0 717 733" fill="none" xmlns="http://www.w3.org/2000/svg">
<path fill-rule="evenodd" clip-rule="evenodd" d="M514.772 646.018C476.641 698.587 414.727 732.774 344.816 732.774C245.526 732.774 162.357 663.808 140.563 571.171C136.306 553.072 136.306 547.051 136.306 529.657V330.653C136.306 323.005 139.405 316.421 145.301 311.55C151.196 306.679 158.245 304.875 165.756 306.314L297.906 331.655C309.695 333.915 318.022 343.988 318.022 355.991V540.085C318.271 562.022 336.126 579.675 358.066 579.675C380.005 579.675 397.858 562.022 398.109 540.085V398.871C398.109 391.454 401.134 385.071 406.876 380.373C412.618 375.676 419.475 373.978 426.744 375.448L534.808 397.31C546.069 399.588 553.966 409.242 553.966 420.734V535.556C553.966 573.071 535.919 616.864 514.775 646.015L514.772 646.018Z" fill="url(#paint0_linear_225_1086)"/>
<path fill-rule="evenodd" clip-rule="evenodd" d="M514.768 646.017C476.637 698.586 414.722 732.773 344.812 732.773C290.628 732.773 241.247 712.235 204.021 678.518C247.908 689.785 294.526 681.406 331.745 655.563C368.88 629.777 392.991 589.145 397.843 544.205L397.857 544.085L397.877 543.9L398.102 543.877V540.081V380.846C398.102 373.198 401.202 366.618 407.097 361.743C412.993 356.872 420.042 355.069 427.55 356.507L533.843 376.888C545.631 379.148 553.959 389.225 553.959 401.228V535.553C553.959 573.068 535.912 616.861 514.768 646.012V646.017Z" fill="#F4F4F4"/>
<path fill-rule="evenodd" clip-rule="evenodd" d="M80.2692 205.675C80.2949 270.7 35.0348 297.363 28.9706 359.685C26.6106 383.945 31.402 406.6 40.7051 428.988L41.2787 430.366L50.1196 431.342C48.2904 450.913 59.3828 469.405 77.5097 477.002C73.0264 480.9 68.4319 484.67 63.7347 488.308C59.8451 486.385 56.5519 483.437 54.2061 479.784C54.4487 483.44 55.3647 487.016 56.9058 490.337C52.6451 492.44 47.9251 493.439 43.1765 493.237C36.69 490.842 31.3278 486.117 28.1345 479.987C27.1614 486.219 27.9718 492.597 30.4631 498.393C17.0278 476.988 9.97337 452.197 10.1275 426.925L19.833 428.001L19.8301 427.983C-1.73547 306.908 75.7261 292.734 59.7481 206.977L80.2663 205.675H80.2692Z" fill="#F4F4F4"/>
<path fill-rule="evenodd" clip-rule="evenodd" d="M276.946 0.484004L696.86 81.0019C707.056 82.9567 714.622 90.5419 716.545 100.747C718.471 110.949 714.191 120.769 705.407 126.305L457.932 282.289C452.404 285.774 446.469 286.895 440.053 285.665L20.139 205.147C9.94261 203.193 2.38024 195.607 0.453972 185.403C-1.46944 175.201 2.8083 165.381 11.5921 159.845L259.067 3.85711C264.595 0.372709 270.533 -0.748805 276.949 0.484004H276.946Z" fill="#F4F4F4"/>
<defs>
<linearGradient id="paint0_linear_225_1086" x1="225.841" y1="466.593" x2="323.835" y2="711.62" gradientUnits="userSpaceOnUse">
<stop stop-color="#F4F4F4"/>
<stop offset="1" stop-color="#E8E8E8"/>
</linearGradient>
</defs>
</svg>
