<svg width="80" height="80" viewBox="0 0 80 80" fill="none" xmlns="http://www.w3.org/2000/svg">
<path d="M72.1796 62.2041C73.7598 60.0313 74.6163 57.4162 74.6276 54.7295C74.6446 54.3762 74.5206 54.0306 74.2828 53.7688C74.045 53.507 73.7129 53.3504 73.3596 53.3335C72.6268 53.3061 72.0066 53.8695 71.9636 54.6015C71.9736 56.7308 71.3177 58.81 70.0876 60.5481C67.4863 63.8335 62.5503 64.0001 61.5863 64.0001C60.8499 64.0001 60.2529 64.5971 60.2529 65.3335C60.2529 66.0699 60.8499 66.6668 61.5863 66.6668C62.7649 66.6668 68.8143 66.4521 72.1796 62.2041Z" fill="#F87B80"/>
<path d="M45.3337 45.3333C45.3337 44.5969 44.7367 43.9999 44.0003 43.9999C43.2639 43.9999 42.667 44.5969 42.667 45.3333C42.667 48.2788 45.0548 50.6666 48.0003 50.6666V51.9999C48.0003 52.7363 48.5973 53.3333 49.3337 53.3333C50.07 53.3333 50.667 52.7363 50.667 51.9999V50.6666C53.6125 50.6666 56.0003 48.2788 56.0003 45.3333C56.0003 42.3877 53.6125 39.9999 50.667 39.9999V34.6666C52.1398 34.6666 53.3337 35.8605 53.3337 37.3333C53.3337 38.0696 53.9306 38.6666 54.667 38.6666C55.4034 38.6666 56.0003 38.0696 56.0003 37.3333C56.0003 34.3877 53.6125 31.9999 50.667 31.9999V30.6666C50.667 29.9302 50.07 29.3333 49.3337 29.3333C48.5973 29.3333 48.0003 29.9302 48.0003 30.6666V31.9999C45.0548 31.9999 42.667 34.3877 42.667 37.3333C42.667 40.2788 45.0548 42.6666 48.0003 42.6666V47.9999C46.5276 47.9999 45.3337 46.806 45.3337 45.3333ZM45.3337 37.3333C45.3337 35.8605 46.5276 34.6666 48.0003 34.6666V39.9999C46.5276 39.9999 45.3337 38.806 45.3337 37.3333ZM50.667 42.6666C52.1398 42.6666 53.3337 43.8605 53.3337 45.3333C53.3337 46.806 52.1398 47.9999 50.667 47.9999V42.6666Z" fill="#F87B80"/>
<path d="M78.8853 45.028C75.6 31.0667 68.296 22.9774 63.0213 18.752C69.636 19.2507 71.7653 22.0027 71.828 22.0854C72.2457 22.6817 73.0646 22.8326 73.6675 22.4245C74.2704 22.0164 74.4344 21.2001 74.036 20.5907C73.94 20.4467 72.088 17.8014 66.7027 16.5907C68.0797 15.4587 68.8943 13.7822 68.9333 12C68.7551 9.04528 66.6981 6.53971 63.8347 5.78935C63.9521 4.82623 64.0117 3.85694 64.0133 2.88668C64.0119 1.99282 63.5627 1.15912 62.817 0.666267C62.0713 0.173412 61.1282 0.0869612 60.3053 0.436018C59.6322 0.740785 59.007 1.14188 58.4493 1.62668C57.795 2.29911 56.8942 2.67484 55.956 2.66668C55.0193 2.67328 54.1203 2.29771 53.4667 1.62668C51.1169 -0.54353 47.4938 -0.54353 45.144 1.62668C44.4896 2.30058 43.5873 2.67651 42.648 2.66668C41.7114 2.67447 40.8124 2.29869 40.16 1.62668C39.6038 1.14292 38.9804 0.742308 38.3093 0.437351C37.487 0.0906341 36.5457 0.178266 35.8015 0.670828C35.0573 1.16339 34.6089 1.99558 34.6067 2.88802C34.6067 6.20535 35.2627 12.1227 39.416 16.096C37.2332 17.4233 35.1947 18.9743 33.3333 20.724V10.6667C33.3333 7.62668 29.0333 5.33335 23.3333 5.33335C17.6333 5.33335 13.3333 7.62668 13.3333 10.6667V24.1C8.65733 24.5667 5.33333 26.6667 5.33333 29.3334V63.2467C2.112 64.112 0 65.8667 0 68V74.6667C0 77.7067 4.3 80 10 80C15.0973 80 19.0667 78.164 19.8493 75.6C22.1509 76.8186 24.7304 77.4161 27.3333 77.3334C33.0333 77.3334 37.3333 75.04 37.3333 72V54.6667C37.3333 51.6267 33.0333 49.3334 27.3333 49.3334C26.6654 49.3329 25.9979 49.3663 25.3333 49.4334V29.3334C25.3333 26.4134 21.364 24.1894 16 24.0174V14.3587C18.2683 15.5116 20.79 16.076 23.3333 16C25.8767 16.076 28.3984 15.5116 30.6667 14.3587V23.452C29.788 24.4347 28.9053 25.5054 28.0347 26.692C27.636 27.2857 27.7767 28.0883 28.3536 28.5109C28.9305 28.9336 29.7381 28.8258 30.184 28.2667C31.0404 27.1073 31.9581 25.9946 32.9333 24.9334C32.944 24.9214 32.9533 24.9094 32.964 24.8987C35.5093 22.07 38.4981 19.6747 41.8133 17.8067C42.4669 18.122 43.1584 18.3519 43.8707 18.4907L40.4333 21.6987C39.895 22.2016 39.8664 23.0457 40.3693 23.584C40.8723 24.1223 41.7164 24.151 42.2547 23.648L47.588 18.6734H48.0133V22.6734C48.0133 23.4097 48.6103 24.0067 49.3467 24.0067C50.083 24.0067 50.68 23.4097 50.68 22.6734V18.6667H51.1053L56.4387 23.6414C56.7869 23.9667 57.2822 24.0816 57.7381 23.9427C58.194 23.8038 58.5411 23.4323 58.6488 22.968C58.7564 22.5038 58.6082 22.0174 58.26 21.692L54.8 18.4707C55.508 18.3306 56.195 18.0998 56.844 17.784C60.368 19.6907 71.952 27.224 76.2907 45.6387C78.1773 53.6547 77.4973 59.7867 74.2707 63.86C70.1427 69.0667 62.98 69.3334 61.5867 69.3334H42.6667C41.9303 69.3334 41.3333 69.9303 41.3333 70.6667C41.3333 71.4031 41.9303 72 42.6667 72H61.5867C63.8533 72 71.5933 71.532 76.36 65.516C80.1173 60.7707 80.968 53.8774 78.8853 45.028ZM10 65.3334C14.4093 65.3334 17.3333 66.9334 17.3333 68C17.3333 69.0667 14.4093 70.6667 10 70.6667C5.59067 70.6667 2.66667 69.0667 2.66667 68C2.66667 66.9334 5.59067 65.3334 10 65.3334ZM10 77.3334C5.59067 77.3334 2.66667 75.7334 2.66667 74.6667V71.692C4.93497 72.8449 7.45664 73.4093 10 73.3334C12.5434 73.4093 15.065 72.8449 17.3333 71.692V74.6667C17.3333 75.7334 14.4093 77.3334 10 77.3334ZM27.3333 74.6667C22.924 74.6667 20 73.0667 20 72V58.3587C22.2683 59.5116 24.79 60.076 27.3333 60C29.8767 60.076 32.3984 59.5116 34.6667 58.3587V72C34.6667 73.0667 31.7427 74.6667 27.3333 74.6667ZM34.6667 54.6667C34.6667 55.7334 31.7427 57.3334 27.3333 57.3334C22.924 57.3334 20 55.7334 20 54.6667C20 53.6 22.924 52 27.3333 52C31.7427 52 34.6667 53.6 34.6667 54.6667ZM17.3333 54.6667V64.308C15.065 63.1551 12.5434 62.5907 10 62.6667C9.33207 62.6662 8.66455 62.6996 8 62.7667V33.0254C10.2683 34.1783 12.79 34.7427 15.3333 34.6667C17.8767 34.7427 20.3984 34.1783 22.6667 33.0254V49.9134C19.4453 50.7787 17.3333 52.5334 17.3333 54.6667ZM22.6667 29.3334C22.6667 30.4 19.7427 32 15.3333 32C10.924 32 8 30.4 8 29.3334C8 28.2667 10.924 26.6667 15.3333 26.6667C19.7427 26.6667 22.6667 28.2667 22.6667 29.3334ZM23.3333 13.3334C18.924 13.3334 16 11.7334 16 10.6667C16 9.60002 18.924 8.00002 23.3333 8.00002C27.7427 8.00002 30.6667 9.60002 30.6667 10.6667C30.6667 11.7334 27.7427 13.3334 23.3333 13.3334ZM66.2667 12C66.2667 14.1854 63.9 15.9787 60.9333 16C60.4371 15.9969 59.9427 15.9401 59.4587 15.8307C61.3939 13.7661 62.7389 11.2196 63.3533 8.45735C64.9583 8.93024 66.1126 10.334 66.2667 12ZM38.4907 3.70668C39.6167 4.7618 41.1049 5.34412 42.648 5.33335C44.192 5.34494 45.6814 4.76255 46.808 3.70668C47.4671 3.04127 48.3648 2.66691 49.3013 2.66691C50.2379 2.66691 51.1356 3.04127 51.7947 3.70668C52.9213 4.76335 54.4114 5.34583 55.956 5.33335C57.5005 5.34528 58.9904 4.76287 60.1173 3.70668C60.4868 3.38012 60.898 3.10394 61.34 2.88535C61.34 5.36135 60.88 11.4827 56.584 14.8387C55.6175 15.5645 54.4459 15.9655 53.2373 15.984C54.3916 14.0015 55.3052 11.8883 55.9587 9.68935C56.0863 9.23015 55.9593 8.73772 55.6255 8.39755C55.2916 8.05739 54.8017 7.92118 54.3401 8.04022C53.8786 8.15926 53.5157 8.51548 53.388 8.97468C52.6495 11.481 51.5143 13.8529 50.0253 16H48.6547C47.1687 13.851 46.0332 11.4797 45.2907 8.97468C45.093 8.26518 44.3575 7.8503 43.648 8.04802C42.9385 8.24574 42.5236 8.98118 42.7213 9.69068C43.3755 11.8916 44.29 14.0065 45.4453 15.9907C44.2126 15.9844 43.0147 15.5809 42.0293 14.84C37.7333 11.4854 37.2733 5.36402 37.2733 2.89602C37.7152 3.10771 38.125 3.38062 38.4907 3.70668Z" fill="#F87B80"/>
<path d="M72.1796 62.204C73.7598 60.0312 74.6163 57.4161 74.6276 54.7294C74.6446 54.3761 74.5206 54.0305 74.2828 53.7687C74.045 53.5069 73.7129 53.3503 73.3596 53.3334C72.6274 53.3074 72.008 53.87 71.9636 54.6014C71.9736 56.7307 71.3177 58.8099 70.0876 60.548C67.4863 63.8334 62.5503 64 61.5863 64C60.8499 64 60.2529 64.597 60.2529 65.3334C60.2529 66.0698 60.8499 66.6667 61.5863 66.6667C62.7649 66.6667 68.8143 66.452 72.1796 62.204Z" fill="#F87B80"/>
</svg>
