<svg width="80" height="80" viewBox="0 0 80 80" fill="none" xmlns="http://www.w3.org/2000/svg">
<path d="M77.6709 14.2194C77.666 14.2194 77.6611 14.2188 77.6562 14.2188H56.4062V11.875C56.4062 7.99805 53.252 4.84375 49.375 4.84375H30.625C26.748 4.84375 23.5938 7.99805 23.5938 11.875V14.2188H2.34375C1.03882 14.2188 0 15.2881 0 16.5625V68.125C0 72.002 3.1543 75.1562 7.03125 75.1562H72.9688C76.8457 75.1562 80 72.002 80 68.125V16.6119C80 16.6089 80 16.6058 80 16.6028C79.9103 15.0635 78.9636 14.2279 77.6709 14.2194ZM28.2812 11.875C28.2812 10.5829 29.3329 9.53125 30.625 9.53125H49.375C50.6671 9.53125 51.7188 10.5829 51.7188 11.875V14.2188H28.2812V11.875ZM74.4043 18.9062L67.1259 40.741C66.8066 41.6998 65.9131 42.3438 64.903 42.3438H51.7188V40C51.7188 38.7054 50.6696 37.6562 49.375 37.6562H30.625C29.3304 37.6562 28.2812 38.7054 28.2812 40V42.3438H15.097C14.0869 42.3438 13.1934 41.6998 12.8741 40.741L5.5957 18.9062H74.4043ZM47.0312 42.3438V47.0312H32.9688V42.3438H47.0312ZM75.3125 68.125C75.3125 69.4171 74.2609 70.4688 72.9688 70.4688H7.03125C5.73914 70.4688 4.6875 69.4171 4.6875 68.125V31.0052L8.42712 42.2235C9.38538 45.0995 12.066 47.0312 15.097 47.0312H28.2812V49.375C28.2812 50.6696 29.3304 51.7188 30.625 51.7188H49.375C50.6696 51.7188 51.7188 50.6696 51.7188 49.375V47.0312H64.903C67.934 47.0312 70.6146 45.0995 71.5729 42.2235L75.3125 31.0052V68.125Z" fill="#F87B80"/>
</svg>
