<svg width="80" height="80" viewBox="0 0 80 80" fill="none" xmlns="http://www.w3.org/2000/svg">
<g clip-path="url(#clip0_207_945)">
<path d="M40 80.0001C39.6423 80.0001 39.2848 79.9231 38.9528 79.7706L31.465 76.3149C15.3883 68.8941 5 52.6589 5 34.9526V10.0001C5 8.72937 5.95325 7.66013 7.21675 7.51587C12.1545 6.95188 17.1168 6.12538 21.9628 5.05863C27.7735 3.77938 33.5608 2.12538 39.1663 0.142875C39.7058 -0.047625 40.2943 -0.047625 40.8338 0.142875C46.4393 2.12538 52.2265 3.77938 58.037 5.05863C62.8833 6.12563 67.8453 6.95188 72.783 7.51587C74.0465 7.65987 74.9998 8.72937 74.9998 10.0001V34.9526C74.9998 52.6589 64.6115 68.8944 48.535 76.3149L41.0473 79.7706C40.7153 79.9231 40.3575 80.0001 40 80.0001ZM10 12.2144V34.9526C10 50.7156 19.248 65.1686 33.5595 71.7739L40 74.7464L46.4405 71.7739C60.752 65.1686 70 50.7156 70 34.9526V12.2144C65.6263 11.6479 61.2513 10.8851 56.963 9.94138C51.2403 8.68163 45.5373 7.07037 40 5.14888C34.463 7.07037 28.7598 8.68163 23.037 9.94138C18.7488 10.8849 14.3738 11.6479 10 12.2144Z" fill="#F87B80"/>
<path d="M50 57.5H30C27.2425 57.5 25 55.2575 25 52.5V35C25 32.2425 27.2425 30 30 30H50C52.7575 30 55 32.2425 55 35V52.5C55 55.2575 52.7575 57.5 50 57.5ZM30 35V52.5H50.0037L50 35H30Z" fill="#F87B80"/>
<path d="M47.5 35H32.5C31.1195 35 30 33.8805 30 32.5V27.5C30 21.986 34.486 17.5 40 17.5C45.514 17.5 50 21.986 50 27.5V32.5C50 33.8805 48.8805 35 47.5 35ZM35 30H45V27.5C45 24.7425 42.7575 22.5 40 22.5C37.2425 22.5 35 24.7425 35 27.5V30Z" fill="#F87B80"/>
</g>
<defs>
<clipPath id="clip0_207_945">
<rect width="80" height="80" fill="white"/>
</clipPath>
</defs>
</svg>
