<?xml version="1.0" encoding="utf-8"?><svg viewBox="0 0 253 116" xmlns="http://www.w3.org/2000/svg" xmlns:xlink="http://www.w3.org/1999/xlink"><style>:root>svg{display:none}:root>svg:target{display:block}</style><svg fill="none" viewBox="0 0 116 116" id="advantage" xmlns="http://www.w3.org/2000/svg"><circle opacity=".2" cx="58" cy="58" r="58" fill="#F87B80"/><circle cx="58" cy="58" r="39.545" fill="#F87B80"/><path d="M71.242 53.273v12.54a3.673 3.673 0 01-1.48 2.947 19.44 19.44 0 01-23.21 0 3.673 3.673 0 01-1.48-2.948V54.11m16.654-5.372l12.59 3.86A2.387 2.387 0 0176 54.881v12.615m0 4.377V75M59.325 57.459l15.017-5.275c2.125-.746 2.125-3.76 0-4.507l-15.017-5.275a7.114 7.114 0 00-4.715 0l-15.017 5.275c-2.124.746-2.124 3.76 0 4.507l15.017 5.275a7.113 7.113 0 004.715 0z" stroke="#fff" stroke-width="2" stroke-linecap="round" stroke-linejoin="round"/></svg><svg fill="none" viewBox="0 0 24 24" id="arrow-down" xmlns="http://www.w3.org/2000/svg"><path d="M6 9l6 6 6-6" stroke="#787E82" stroke-width="2" stroke-linecap="round" stroke-linejoin="round"/></svg><svg fill="none" viewBox="0 0 24 24" id="arrow-left" xmlns="http://www.w3.org/2000/svg"><path d="M15 7l-5 5 5 5" stroke="#787E82" stroke-width="1.5" stroke-linecap="round" stroke-linejoin="round"/></svg><svg fill="none" viewBox="0 0 24 24" id="arrow-right" xmlns="http://www.w3.org/2000/svg"><path d="M15 7l5 5-5 5" stroke="#787E82" stroke-width="1.5" stroke-linecap="round" stroke-linejoin="round"/></svg><svg fill="none" viewBox="0 0 29 29" id="avatar" xmlns="http://www.w3.org/2000/svg"><path d="M14.5 19.937c4.5 0 8.156-4.473 8.156-9.969C22.656 4.472 19 0 14.5 0a7.45 7.45 0 00-5.834 3 11.159 11.159 0 00-2.322 6.974c0 5.491 3.656 9.963 8.156 9.963zm0-18.124c3.5 0 6.344 3.659 6.344 8.156 0 4.497-2.846 8.156-6.344 8.156s-6.344-3.66-6.345-8.156C8.154 5.473 11 1.813 14.5 1.813zm6.344 16.312a.907.907 0 000 1.813 6.351 6.351 0 016.344 6.344.908.908 0 01-.906.906H2.72a.908.908 0 01-.906-.906 6.352 6.352 0 016.344-6.344.906.906 0 000-1.812A8.165 8.165 0 000 26.281 2.722 2.722 0 002.719 29h23.563A2.722 2.722 0 0029 26.281a8.166 8.166 0 00-8.156-8.156z" fill="#E8E8E8"/></svg><svg fill="none" viewBox="0 0 32 29" id="cart" xmlns="http://www.w3.org/2000/svg"><path d="M26.2 29a2.477 2.477 0 11.201 0h-.2zM6.754 26.32a2.68 2.68 0 115.364 0 2.68 2.68 0 01-5.366 0h.002zm3.8-5.634a1.184 1.184 0 01-1.145-.867L4.575 2.364H1.182a1.182 1.182 0 010-2.364h4.281a1.183 1.183 0 011.144.868l4.833 17.455h13.178L29 8.275H14.4a1.183 1.183 0 110-2.365h16.413a1.178 1.178 0 01.986.533 1.191 1.191 0 01.1 1.122l-5.405 12.412a1.185 1.185 0 01-1.084.709H10.553z" fill="#E8E8E8"/></svg><svg fill="none" viewBox="0 0 80 80" id="chat" xmlns="http://www.w3.org/2000/svg"><path d="M29.782 55.338c3.174 3.92 7.279 6.048 11.881 7.22 2.499.638 8.964-.451 10.627 1.01 3.504 3.176 7.524 5.184 11.99 6.198.406.091.822.15 1.234.213.521.082.948-.073 1.215-.597.266-.526.17-1.003-.162-1.437a22.66 22.66 0 00-1.2-1.465 14.844 14.844 0 01-2.864-4.636c-.48-1.235.056-2.573 1.107-3.38.222-.17.441-.344.656-.524 2.01-1.664 3.679-3.655 4.701-6.185 1.66-4.102 1.287-8.06-.89-11.825-1.707-2.952-4.039-5.068-6.771-6.597M15.734 37.94c.215.18.434.354.656.524 1.05.807 1.587 2.145 1.107 3.38a14.844 14.844 0 01-2.864 4.636c-.421.463-.814.962-1.2 1.465-.332.434-.428.911-.162 1.437.267.524.694.68 1.215.597.412-.063.828-.122 1.234-.213 4.466-1.014 8.486-3.022 11.99-6.197 1.663-1.463 8.128-.373 10.627-1.01 4.602-1.172 8.707-3.302 11.881-7.22 3.917-4.838 4.166-11.364.601-16.468-2.486-3.557-5.842-5.786-9.69-7.175-6.58-2.375-13.163-2.248-19.67.332-3.926 1.555-7.278 3.998-9.536 7.902-2.177 3.764-2.55 7.723-.89 11.825 1.022 2.53 2.691 4.52 4.7 6.185z" stroke="#F87B80" stroke-width="4" stroke-linecap="round" stroke-linejoin="round"/></svg><svg fill="none" viewBox="0 0 33 33" id="checkbox" xmlns="http://www.w3.org/2000/svg"><path d="M16.5 28.645c6.708 0 12.145-5.437 12.145-12.145 0-6.708-5.437-12.146-12.145-12.146-6.708 0-12.146 5.438-12.146 12.146 0 6.708 5.438 12.145 12.146 12.145z" fill="#C3D1DC"/><path d="M16.5 32C25.06 32 32 25.06 32 16.5 32 7.94 25.06 1 16.5 1 7.94 1 1 7.94 1 16.5 1 25.06 7.94 32 16.5 32z" stroke="#C3D1DC" stroke-miterlimit="10"/><path d="M30.15 17.25a.75.75 0 100-1.5.75.75 0 000 1.5zm-27.3 0a.75.75 0 100-1.5.75.75 0 000 1.5z" fill="#C3D1DC"/><path d="M21.212 14l-4.53 4.53a1.602 1.602 0 01-2.266 0L13 17.116" stroke="#fff" stroke-linecap="round" stroke-linejoin="round"/></svg><svg fill="none" viewBox="0 0 33 33" id="checkbox-red" xmlns="http://www.w3.org/2000/svg"><path d="M16.5 28.645c6.708 0 12.145-5.437 12.145-12.145 0-6.708-5.437-12.146-12.145-12.146-6.708 0-12.146 5.438-12.146 12.146 0 6.708 5.438 12.145 12.146 12.145z" fill="#F87B80"/><path d="M16.5 32C25.06 32 32 25.06 32 16.5 32 7.94 25.06 1 16.5 1 7.94 1 1 7.94 1 16.5 1 25.06 7.94 32 16.5 32z" stroke="#F87B80" stroke-miterlimit="10"/><path d="M30.15 17.25a.75.75 0 100-1.5.75.75 0 000 1.5zm-27.299 0a.75.75 0 100-1.5.75.75 0 000 1.5z" fill="#F87B80"/><path d="M21.212 14l-4.53 4.53a1.602 1.602 0 01-2.266 0L13 17.116" stroke="#fff" stroke-linecap="round" stroke-linejoin="round"/></svg><svg fill="none" viewBox="0 0 116 116" id="circle" xmlns="http://www.w3.org/2000/svg"><circle opacity=".2" cx="58" cy="58" r="58" fill="#C3D1DC"/><circle cx="58" cy="58" r="39.545" fill="#C3D1DC"/></svg><svg fill="none" viewBox="0 0 8 14" id="facebook" xmlns="http://www.w3.org/2000/svg"><path d="M4.976 4.876h1.535L6.364 6.5h-1.99v6.56H2.748V6.5H1.437V4.876h1.299V3.19c0-.472.115-1.042.44-1.48.306-.413.84-.77 1.822-.77 0 0 0 0 0 0l1.529.007v1.25h-.973c-.192 0-.463.047-.695.238-.25.205-.383.517-.383.893v1.048h.496v.5h.004z" fill="#fff" stroke="#fff"/></svg><svg fill="none" viewBox="0 0 24 24" id="globe" xmlns="http://www.w3.org/2000/svg"><path d="M12 22c5.523 0 10-4.477 10-10S17.523 2 12 2 2 6.477 2 12s4.477 10 10 10zM2 12h20" stroke="#F87B80" stroke-width="2" stroke-linecap="round" stroke-linejoin="round"/><path d="M12 2a15.3 15.3 0 014 10 15.3 15.3 0 01-4 10 15.3 15.3 0 01-4-10 15.3 15.3 0 014-10z" stroke="#F87B80" stroke-width="2" stroke-linecap="round" stroke-linejoin="round"/></svg><svg fill="none" viewBox="0 0 18 19" id="inc" xmlns="http://www.w3.org/2000/svg"><circle cx="9" cy="9.5" r="8.5" stroke="#fff"/><path d="M9.264 14.214c-1.3 0-2.312-.392-3.036-1.175-.723-.792-1.085-1.955-1.085-3.487s.362-2.707 1.085-3.526c.724-.827 1.736-1.24 3.036-1.24.86 0 1.58.174 2.156.522a3.53 3.53 0 011.364 1.476l-.997.535a2.534 2.534 0 00-.939-1.123c-.42-.287-.948-.43-1.584-.43-.44 0-.836.073-1.188.221a2.45 2.45 0 00-.88.64c-.234.27-.415.596-.542.98a3.924 3.924 0 00-.191 1.266v1.358c0 .94.244 1.676.733 2.207.49.531 1.178.797 2.068.797.655 0 1.203-.148 1.643-.444a2.68 2.68 0 00.968-1.202l.982.549a3.715 3.715 0 01-1.393 1.528c-.606.365-1.34.548-2.2.548z" fill="#fff"/></svg><svg viewBox="0 0 24 24" fill="none" id="instagram" xmlns="http://www.w3.org/2000/svg"><g fill="#FFF"><path fill-rule="evenodd" clip-rule="evenodd" d="M12 18a6 6 0 100-12 6 6 0 000 12zm0-2a4 4 0 100-8 4 4 0 000 8z"/><path d="M18 5a1 1 0 100 2 1 1 0 000-2z"/><path fill-rule="evenodd" clip-rule="evenodd" d="M1.654 4.276C1 5.56 1 7.24 1 10.6v2.8c0 3.36 0 5.04.654 6.324a6 6 0 002.622 2.622C5.56 23 7.24 23 10.6 23h2.8c3.36 0 5.04 0 6.324-.654a6 6 0 002.622-2.622C23 18.44 23 16.76 23 13.4v-2.8c0-3.36 0-5.04-.654-6.324a6 6 0 00-2.622-2.622C18.44 1 16.76 1 13.4 1h-2.8c-3.36 0-5.04 0-6.324.654a6 6 0 00-2.622 2.622zM13.4 3h-2.8c-1.713 0-2.878.002-3.778.075-.877.072-1.325.202-1.638.361a4 4 0 00-1.748 1.748c-.16.313-.29.761-.36 1.638C3.001 7.722 3 8.887 3 10.6v2.8c0 1.713.002 2.878.075 3.778.072.877.202 1.325.361 1.638a4 4 0 001.748 1.748c.313.16.761.29 1.638.36.9.074 2.065.076 3.778.076h2.8c1.713 0 2.878-.002 3.778-.075.877-.072 1.325-.202 1.638-.361a4 4 0 001.748-1.748c.16-.313.29-.761.36-1.638.074-.9.076-2.065.076-3.778v-2.8c0-1.713-.002-2.878-.075-3.778-.072-.877-.202-1.325-.361-1.638a4 4 0 00-1.748-1.748c-.313-.16-.761-.29-1.638-.36C16.278 3.001 15.113 3 13.4 3z"/></g></svg><svg fill="none" viewBox="0 0 26 33" id="location" xmlns="http://www.w3.org/2000/svg"><path d="M24.666 13.108c0 4.744-5.87 12.6-9.283 16.765a3.056 3.056 0 01-4.767 0c-3.412-4.166-9.283-12.021-9.283-16.765C1.333 6.42 6.556 1 13 1c6.443 0 11.666 5.42 11.666 12.108z" stroke="#fff" stroke-width="2" stroke-linecap="round" stroke-linejoin="round"/><path d="M17.334 12.667a4.333 4.333 0 11-8.667 0 4.333 4.333 0 018.667 0z" stroke="#fff" stroke-width="2" stroke-linecap="round" stroke-linejoin="round"/></svg><svg fill="none" viewBox="0 0 116 116" id="location_circle" xmlns="http://www.w3.org/2000/svg"><circle opacity=".2" cx="58" cy="58" r="58" fill="#C3D1DC"/><circle cx="58" cy="58" r="39.545" fill="#C3D1DC"/><path d="M69.666 55.108c0 4.744-5.87 12.6-9.283 16.765a3.056 3.056 0 01-4.767 0c-3.412-4.166-9.283-12.022-9.283-16.765C46.333 48.42 51.556 43 58 43c6.443 0 11.666 5.42 11.666 12.108z" fill="#fff"/><path d="M62.334 54.667a4.333 4.333 0 11-8.667 0 4.333 4.333 0 018.667 0z" fill="#fff"/><path d="M69.666 55.108c0 4.744-5.87 12.6-9.283 16.765a3.056 3.056 0 01-4.767 0c-3.412-4.166-9.283-12.022-9.283-16.765C46.333 48.42 51.556 43 58 43c6.443 0 11.666 5.42 11.666 12.108z" stroke="#C3D1DC" stroke-width="2" stroke-linecap="round" stroke-linejoin="round"/><path d="M62.334 54.667a4.333 4.333 0 11-8.667 0 4.333 4.333 0 018.667 0z" stroke="#C3D1DC" stroke-width="2" stroke-linecap="round" stroke-linejoin="round"/></svg><svg fill="none" viewBox="0 0 253 68" id="logo" xmlns="http://www.w3.org/2000/svg"><path d="M67.731 45.23c0 .454.644.863 1.932 1.227 1.288.364 2.848.765 4.681 1.204a44.956 44.956 0 015.5 1.705 11.829 11.829 0 014.681 3.204c1.287 1.439 1.932 3.174 1.932 5.204 0 3.393-1.265 5.946-3.795 7.658C80.132 67.144 76.609 68 72.095 68c-5.485 0-10.136-1.272-13.954-3.818l-.454-.363.318-.546 3.409-5.59.363-.59.591.363c.394.242.917.53 1.568.863.652.334 1.886.78 3.704 1.341 1.818.56 3.5.841 5.045.841 1.06 0 1.947-.098 2.659-.295.712-.198 1.212-.463 1.5-.796.288-.333.477-.643.568-.931.091-.288.137-.614.137-.977 0-.576-.349-1.084-1.046-1.523-.697-.44-1.598-.81-2.704-1.114a86.628 86.628 0 00-3.659-.909 36.126 36.126 0 01-4-1.16 23.228 23.228 0 01-3.658-1.635 7.712 7.712 0 01-2.704-2.523c-.697-1.06-1.046-2.287-1.046-3.681 0-3.273 1.333-5.787 4-7.545 2.666-1.757 5.893-2.636 9.68-2.636 1.88 0 3.66.197 5.341.591 1.682.394 3.083.894 4.204 1.5 1.121.606 1.94 1.076 2.455 1.409.515.333.954.651 1.318.954l.045.046.364.318-.273.5-3.272 5.272-.41.636-.59-.454c-.122-.121-.56-.401-1.318-.84-.758-.44-1.97-.932-3.636-1.478-1.667-.545-3.303-.818-4.909-.818-1.545 0-2.598.296-3.159.886-.56.591-.84 1.235-.84 1.932zm23.77-9.954h8.682v6.863h6.999v7.454h-6.999v7.317c0 1.304.159 2.266.477 2.887.318.62.962.931 1.931.931a5.78 5.78 0 001.841-.295c.591-.197 1.023-.387 1.295-.568l.409-.319.682-.636.409.864 2.091 4.817.136.41-.272.317C107.394 67.106 105 68 102 68c-1.575 0-2.969-.167-4.18-.5-1.213-.333-2.19-.84-2.932-1.522-.743-.682-1.349-1.394-1.818-2.137-.47-.742-.818-1.659-1.046-2.75a22.12 22.12 0 01-.431-2.93 45.817 45.817 0 01-.091-3.114v-5.454h-4.136v-7.454h4.136v-6.863zm19.726 6.863h8.226v13.499c0 1.515.288 2.711.864 3.59.575.879 1.636 1.318 3.181 1.318 1.394 0 2.598-.25 3.613-.75 1.015-.5 1.75-1.174 2.205-2.022V42.139h8.226v25.27h-8.226v-2.363c-2.424 1.97-5.197 2.954-8.318 2.954-2.666 0-4.961-.856-6.885-2.568-1.924-1.712-2.886-3.992-2.886-6.84V42.139zm49.676-9.045h8.227V67.41h-8.227v-1.363c-1.969 1.303-4.333 1.954-7.09 1.954-4.121 0-7.416-1.235-9.885-3.704-2.47-2.47-3.705-5.643-3.705-9.522 0-3.878 1.235-7.044 3.705-9.499 2.469-2.454 5.764-3.681 9.885-3.681 2.757 0 5.121.651 7.09 1.954V33.094zm-1.795 25.952c1.197-1.09 1.795-2.515 1.795-4.272 0-1.757-.598-3.181-1.795-4.272-1.197-1.091-2.704-1.636-4.522-1.636s-3.333.545-4.545 1.636c-1.213 1.09-1.818 2.514-1.818 4.272 0 1.757.605 3.182 1.818 4.272 1.212 1.091 2.727 1.636 4.545 1.636s3.325-.545 4.522-1.636zm16.771 5.227c-2.712-2.484-4.068-5.65-4.068-9.499 0-3.848 1.364-7.007 4.091-9.476 2.727-2.47 6.196-3.705 10.408-3.705 3.757 0 6.87 1.13 9.34 3.386 2.469 2.258 3.704 5.477 3.704 9.658 0 .88-.031 1.56-.091 2.046l-.091.59h-18.907c.424 1.061 1.167 1.894 2.227 2.5 1.061.606 2.303.91 3.727.91 2.303 0 4.075-.91 5.317-2.728l.364-.545.591.318 5.817 2.863.637.319-.364.636c-1.212 2-2.901 3.575-5.068 4.727-2.166 1.151-4.598 1.727-7.294 1.727-4.182 0-7.628-1.242-10.34-3.727zm15.157-13.453c-.515-1.303-2.121-1.954-4.817-1.954-2.242 0-3.97.651-5.181 1.954h9.998zm19.226-6.272c2.424-1.97 5.166-2.954 8.226-2.954 2.666 0 4.977.863 6.931 2.59 1.955 1.728 2.932 4.015 2.932 6.863v16.361h-8.226V53.957c0-1.515-.288-2.712-.864-3.59-.576-.88-1.636-1.319-3.182-1.319-2.908 0-4.848.91-5.817 2.728V67.41h-8.227V42.14h8.227v2.408zm24.088-9.272h8.681v6.863h7v7.454h-7v7.317c0 1.304.159 2.266.477 2.887.319.62.963.931 1.932.931.636 0 1.25-.098 1.841-.295.591-.197 1.023-.387 1.295-.568l.409-.319.682-.636.409.864 2.091 4.817.136.41-.273.317c-1.787 1.788-4.181 2.682-7.181 2.682-1.575 0-2.969-.167-4.181-.5-1.212-.333-2.189-.84-2.932-1.522-.742-.682-1.348-1.394-1.818-2.137-.469-.742-.818-1.659-1.045-2.75a22.078 22.078 0 01-.431-2.93 45.148 45.148 0 01-.091-3.114v-5.454h-4.136v-7.454h4.136v-6.863h-.001z" fill="#2C3A5A"/><path fill-rule="evenodd" clip-rule="evenodd" d="M47.77 59.95C44.231 64.826 38.486 68 31.998 68c-9.214 0-16.932-6.4-18.954-14.996-.395-1.68-.395-2.239-.395-3.853V30.684c0-.71.288-1.32.835-1.773a2.231 2.231 0 011.898-.486l12.263 2.352a2.283 2.283 0 011.867 2.258V50.12a3.716 3.716 0 007.432 0V37.014c0-.688.28-1.28.813-1.716a2.15 2.15 0 011.844-.457l10.028 2.029a2.2 2.2 0 011.778 2.173V49.7c0 3.48-1.675 7.545-3.637 10.25z" fill="url(#qpaint0_linear_501_298)"/><path fill-rule="evenodd" clip-rule="evenodd" d="M47.77 59.95C44.232 64.826 38.486 68 32 68c-5.028 0-9.61-1.906-13.065-5.035A14.472 14.472 0 0036.92 50.501l.001-.011.002-.017.021-.002V35.342c0-.71.288-1.32.835-1.773a2.23 2.23 0 011.898-.486l9.864 1.891a2.283 2.283 0 011.866 2.26v12.464c0 3.481-1.674 7.545-3.637 10.25v.001zM7.449 19.087c.002 6.034-4.198 8.508-4.76 14.291-.22 2.252.225 4.354 1.088 6.432l.053.127.82.091a4.173 4.173 0 002.543 4.237c-.416.362-.843.712-1.279 1.05a2.22 2.22 0 01-.884-.792c.023.34.108.671.25.98a2.625 2.625 0 01-1.273.269 2.582 2.582 0 01-1.396-1.23 3.11 3.11 0 00.216 1.708A12.334 12.334 0 01.94 39.618l.9.1v-.002c-2-11.235 5.187-12.55 3.704-20.509l1.904-.12z" fill="#F87B80"/><path fill-rule="evenodd" clip-rule="evenodd" d="M25.7.045l38.967 7.472a2.261 2.261 0 011.827 1.832 2.262 2.262 0 01-1.034 2.372L42.495 26.196a2.218 2.218 0 01-1.659.313L1.87 19.037a2.262 2.262 0 01-1.827-1.832 2.262 2.262 0 011.034-2.372L24.04.358A2.217 2.217 0 0125.7.045z" fill="#F87B80"/><defs><linearGradient id="qpaint0_linear_501_298" x1="20.958" y1="43.299" x2="30.051" y2="66.037" gradientUnits="userSpaceOnUse"><stop stop-color="#F87B80"/><stop offset="1" stop-color="#DE5B60"/></linearGradient></defs></svg><svg fill="none" viewBox="0 0 249 68" id="logo-white" xmlns="http://www.w3.org/2000/svg"><path d="M66.736 45.065c0 .447.634.85 1.903 1.209 1.269.358 2.806.754 4.612 1.186 1.807.433 3.613.993 5.419 1.68a11.656 11.656 0 014.613 3.157c1.268 1.418 1.903 3.127 1.903 5.127 0 3.344-1.247 5.86-3.74 7.546-2.492 1.687-5.963 2.53-10.411 2.53-5.403 0-9.986-1.254-13.748-3.761l-.448-.359.314-.537 3.358-5.508.359-.582.582.358a23.4 23.4 0 001.545.85c.642.33 1.858.77 3.65 1.322 1.79.552 3.447.828 4.97.828 1.045 0 1.918-.097 2.62-.29.701-.195 1.194-.456 1.478-.784.283-.329.47-.635.56-.918.089-.284.134-.605.134-.963 0-.567-.344-1.067-1.03-1.5-.687-.433-1.575-.799-2.665-1.098a85.53 85.53 0 00-3.605-.895 35.604 35.604 0 01-3.94-1.142c-1.314-.463-2.516-1-3.605-1.612a7.598 7.598 0 01-2.665-2.486c-.686-1.045-1.03-2.254-1.03-3.627 0-3.224 1.314-5.702 3.941-7.434 2.627-1.732 5.807-2.597 9.538-2.597 1.851 0 3.605.194 5.262.582 1.657.388 3.038.88 4.143 1.478 1.104.597 1.91 1.06 2.418 1.388.507.328.94.642 1.299.94l.044.045.359.314-.269.492L81.38 45.2l-.403.627-.583-.448c-.119-.119-.552-.395-1.298-.828-.746-.433-1.94-.918-3.583-1.456-1.642-.537-3.254-.806-4.836-.806-1.523 0-2.56.292-3.113.874-.552.582-.828 1.216-.828 1.903zm23.42-9.808h8.554v6.762h6.896v7.345H98.71v7.21c0 1.284.157 2.232.47 2.843.314.612.948.918 1.903.918.627 0 1.232-.097 1.814-.29.582-.195 1.008-.382 1.276-.56l.403-.314.672-.627.403.85 2.06 4.747.134.404-.268.313c-1.762 1.761-4.12 2.642-7.076 2.642-1.552 0-2.926-.164-4.12-.493-1.194-.328-2.157-.828-2.888-1.5-.731-.672-1.329-1.373-1.791-2.105-.463-.73-.806-1.634-1.03-2.709a21.79 21.79 0 01-.425-2.888c-.06-.851-.09-1.874-.09-3.068v-5.374h-4.075V42.02h4.075v-6.762zm19.436 6.762h8.105v13.3c0 1.493.284 2.672.851 3.538.567.866 1.612 1.299 3.135 1.299 1.373 0 2.56-.246 3.56-.74 1-.492 1.724-1.156 2.172-1.992V42.02h8.105v24.899h-8.105V64.59c-2.389 1.94-5.12 2.911-8.195 2.911-2.628 0-4.889-.843-6.785-2.53-1.895-1.687-2.843-3.933-2.843-6.74V42.02zm48.946-8.911h8.105v33.81h-8.105v-1.344c-1.941 1.284-4.27 1.926-6.986 1.926-4.061 0-7.307-1.216-9.74-3.65-2.433-2.433-3.65-5.56-3.65-9.381 0-3.821 1.216-6.941 3.65-9.36 2.433-2.418 5.68-3.627 9.74-3.627 2.716 0 5.045.642 6.986 1.926v-10.3zm-1.769 25.57c1.179-1.075 1.769-2.478 1.769-4.21 0-1.73-.59-3.134-1.769-4.209-1.179-1.075-2.665-1.612-4.456-1.612-1.791 0-3.284.537-4.478 1.612-1.195 1.075-1.792 2.478-1.792 4.21 0 1.731.597 3.134 1.792 4.21 1.194 1.074 2.687 1.611 4.478 1.611s3.276-.537 4.456-1.612zm16.524 5.15c-2.672-2.448-4.008-5.568-4.008-9.36 0-3.79 1.344-6.903 4.03-9.336 2.688-2.433 6.106-3.65 10.255-3.65 3.702 0 6.77 1.112 9.203 3.336 2.433 2.224 3.65 5.396 3.65 9.516 0 .866-.03 1.537-.09 2.015l-.089.582h-18.629c.418 1.045 1.149 1.866 2.194 2.463s2.269.896 3.672.896c2.269 0 4.015-.896 5.239-2.687l.359-.537.582.313 5.732 2.821.627.314-.359.627c-1.194 1.97-2.858 3.523-4.993 4.657-2.134 1.135-4.53 1.702-7.187 1.702-4.12 0-7.516-1.224-10.188-3.672zm14.935-13.255c-.508-1.284-2.09-1.926-4.747-1.926-2.209 0-3.911.642-5.105 1.926h9.852zm18.942-6.18c2.389-1.94 5.091-2.91 8.106-2.91 2.627 0 4.903.85 6.829 2.552 1.926 1.702 2.888 3.955 2.888 6.762v16.12h-8.105V53.663c0-1.492-.284-2.672-.851-3.537-.567-.866-1.612-1.299-3.135-1.299-2.866 0-4.776.896-5.732 2.687v15.404h-8.105V42.019h8.105v2.374zm23.734-9.136h8.554v6.762h6.896v7.345h-6.896v7.21c0 1.284.157 2.232.47 2.843.314.612.948.918 1.903.918.627 0 1.232-.097 1.814-.29.582-.195 1.008-.382 1.276-.56l.403-.314.672-.627.403.85 2.06 4.747.134.404-.268.313c-1.762 1.761-4.12 2.642-7.076 2.642-1.552 0-2.926-.164-4.12-.493-1.194-.328-2.157-.828-2.888-1.5-.731-.672-1.329-1.373-1.791-2.105-.463-.73-.806-1.634-1.03-2.709a21.686 21.686 0 01-.425-2.888c-.06-.851-.09-1.874-.09-3.068v-5.374h-4.075V42.02h4.075v-6.762h-.001z" fill="#fff"/><path fill-rule="evenodd" clip-rule="evenodd" d="M47.068 59.568C43.58 64.374 37.92 67.5 31.528 67.5c-9.078 0-16.683-6.306-18.675-14.776-.39-1.655-.39-2.205-.39-3.796V30.733c0-.7.284-1.302.823-1.747a2.198 2.198 0 011.87-.479l12.083 2.317a2.249 2.249 0 011.84 2.226v16.832a3.661 3.661 0 007.322 0V36.97c0-.678.277-1.262.802-1.691a2.119 2.119 0 011.816-.45l9.88 1.998a2.167 2.167 0 011.752 2.142v10.499c0 3.43-1.65 7.434-3.583 10.1z" fill="url(#rpaint0_linear_539_43)"/><path fill-rule="evenodd" clip-rule="evenodd" d="M47.068 59.568C43.58 64.374 37.92 67.5 31.528 67.5c-4.954 0-9.47-1.878-12.873-4.96a14.259 14.259 0 0017.722-12.281v-.011l.003-.017.02-.002V35.322c0-.7.284-1.3.823-1.747a2.198 2.198 0 011.87-.478l9.719 1.863a2.25 2.25 0 011.839 2.226v12.281c0 3.43-1.65 7.435-3.583 10.1zM7.34 19.306c.002 5.945-4.137 8.383-4.691 14.081-.216 2.218.222 4.29 1.073 6.337l.052.126.809.09a4.112 4.112 0 002.504 4.174c-.41.356-.83.701-1.26 1.034a2.189 2.189 0 01-.87-.78c.021.335.105.662.246.965-.39.193-.821.284-1.255.265a2.544 2.544 0 01-1.376-1.211 3.064 3.064 0 00.213 1.683 12.152 12.152 0 01-1.859-6.535l.887.099v-.002c-1.972-11.07 5.11-12.366 3.65-20.207l1.876-.12z" fill="#F87B80"/><path fill-rule="evenodd" clip-rule="evenodd" d="M25.322.544l38.394 7.362a2.228 2.228 0 011.8 1.806 2.228 2.228 0 01-1.018 2.337L41.87 26.31a2.186 2.186 0 01-1.634.308L1.84 19.257a2.229 2.229 0 01-1.8-1.805 2.228 2.228 0 011.019-2.337L23.687.853a2.185 2.185 0 011.635-.309z" fill="#F87B80"/><defs><linearGradient id="rpaint0_linear_539_43" x1="20.65" y1="43.162" x2="29.61" y2="65.566" gradientUnits="userSpaceOnUse"><stop stop-color="#F87B80"/><stop offset="1" stop-color="#DE5B60"/></linearGradient></defs></svg><svg fill="none" viewBox="0 0 40 40" id="mail" xmlns="http://www.w3.org/2000/svg"><path d="M9.809 13.813l1.583 1.48 6.334 5.918a3.333 3.333 0 004.549 0l7.934-7.397M8.333 31.666h23.334A3.333 3.333 0 0035 28.333V11.668a3.333 3.333 0 00-3.333-3.333H8.333A3.333 3.333 0 005 11.667v16.666a3.333 3.333 0 003.333 3.334z" stroke="#fff" stroke-width="2" stroke-linecap="round" stroke-linejoin="round"/></svg><svg fill="none" viewBox="0 0 116 116" id="mail_circle" xmlns="http://www.w3.org/2000/svg"><circle opacity=".2" cx="58" cy="58" r="58" fill="#C3D1DC"/><circle cx="58" cy="58" r="39.545" fill="#C3D1DC"/><path d="M43 49.667a3.333 3.333 0 013.333-3.334h23.334A3.333 3.333 0 0173 49.668v16.666a3.333 3.333 0 01-3.333 3.334H46.333A3.333 3.333 0 0143 66.333V49.668z" fill="#fff"/><path d="M47.809 51.813l1.583 1.48 6.334 5.918a3.333 3.333 0 004.549 0l7.934-7.398M46.333 69.667h23.334A3.333 3.333 0 0073 66.333V49.668a3.333 3.333 0 00-3.333-3.334H46.333A3.333 3.333 0 0043 49.668v16.666a3.333 3.333 0 003.333 3.334z" stroke="#C3D1DC" stroke-width="2" stroke-linecap="round" stroke-linejoin="round"/></svg><svg fill="none" viewBox="0 0 32 23" id="menu" xmlns="http://www.w3.org/2000/svg"><path d="M0 23v-2.69h32V23H0zm0-10.24v-2.69h32v2.69H0zM0 2.69V0h32v2.69H0z" fill="#E8E8E8"/></svg><svg fill="none" viewBox="0 0 13 13" id="phone" xmlns="http://www.w3.org/2000/svg"><path clip-rule="evenodd" d="M4.365 8.635c4.422 4.422 5.718 3.364 6.296 2.95.094-.053 2.236-1.433.904-2.765-3.09-3.09-2.463.927-5.388-1.998C3.253 3.897 7.27 4.525 4.18 1.435c-1.332-1.332-2.713.81-2.765.903-.414.579-1.472 1.875 2.95 6.297z" stroke="#fff" stroke-width=".5" stroke-linecap="round" stroke-linejoin="round"/></svg><svg fill="none" viewBox="0 0 116 116" id="phone_circle" xmlns="http://www.w3.org/2000/svg"><circle opacity=".2" cx="58" cy="58" r="58" fill="#C3D1DC"/><circle cx="58" cy="58" r="39.545" fill="#C3D1DC"/><path fill-rule="evenodd" clip-rule="evenodd" d="M52.178 63.823c12.06 12.06 15.593 9.173 17.171 8.046.255-.145 6.097-3.909 2.464-7.54-8.426-8.427-6.716 2.525-14.693-5.45-7.975-7.977 2.978-6.266-5.447-14.692-3.634-3.633-7.398 2.209-7.541 2.462-1.13 1.578-4.014 5.114 8.046 17.174z" fill="#FFF"/></svg><svg fill="none" viewBox="0 0 27 28" id="search" xmlns="http://www.w3.org/2000/svg"><path d="M19.06 17.626A10.395 10.395 0 1011.42 21a10.317 10.317 0 006.24-2.09l7.749 7.807a.925.925 0 00.66.285.9.9 0 00.66-.285.971.971 0 000-1.346l-7.67-7.746zM2.887 10.5a8.535 8.535 0 118.534 8.6 8.575 8.575 0 01-8.534-8.6z" fill="#E8E8E8"/></svg><svg fill="none" viewBox="0 0 32 32" id="social-back" xmlns="http://www.w3.org/2000/svg"><path d="M27.254 16c0 6.215-5.039 11.254-11.254 11.254S4.746 22.215 4.746 16 9.785 4.746 16 4.746 27.254 9.785 27.254 16z" fill="#2C3A5A" stroke="#2C3A5A"/><path d="M16 31c8.284 0 15-6.716 15-15 0-8.284-6.716-15-15-15C7.716 1 1 7.716 1 16c0 8.284 6.716 15 15 15z" stroke="#2C3A5A" stroke-miterlimit="10"/><path d="M29.435 16a.225.225 0 11-.45 0 .225.225 0 01.45 0zM3.017 16a.225.225 0 11-.45 0 .225.225 0 01.45 0z" fill="#2C3A5A" stroke="#2C3A5A"/></svg><svg fill="none" viewBox="0 0 40 40" id="telegram" xmlns="http://www.w3.org/2000/svg"><path d="M15.714 23.722l-8.457-2.72c-1.427-.46-1.57-2.421-.226-3.083L33.068 5.105c1.33-.655 2.79.623 2.315 2.028L28.66 27.03a1.667 1.667 0 01-2.201 1.013L21.875 26.2m-6.16-2.478v6.827c0 1.698 2.241 2.309 3.102.846l3.058-5.195m-6.16-2.478l6.16 2.477m-6.16-2.477L34.695 5.64" stroke="#fff" stroke-width="2" stroke-linecap="round" stroke-linejoin="round"/></svg></svg>