<svg width="32" height="32" viewBox="0 0 32 32" fill="none" xmlns="http://www.w3.org/2000/svg">
<path d="M15.9998 27.7537C22.4912 27.7537 27.7536 22.4914 27.7536 16C27.7536 9.5086 22.4912 4.24628 15.9998 4.24628C9.50842 4.24628 4.24609 9.5086 4.24609 16C4.24609 22.4914 9.50842 27.7537 15.9998 27.7537Z" fill="#2C3A5A"/>
<path d="M16 31C24.2843 31 31 24.2843 31 16C31 7.71573 24.2843 1 16 1C7.71573 1 1 7.71573 1 16C1 24.2843 7.71573 31 16 31Z" stroke="#2C3A5A" stroke-miterlimit="10"/>
<path d="M29.4341 16C29.4341 16.1245 29.3332 16.2254 29.2088 16.2254C29.0843 16.2254 28.9834 16.1245 28.9834 16C28.9834 15.8756 29.0843 15.7747 29.2088 15.7747C29.3332 15.7747 29.4341 15.8756 29.4341 16Z" fill="#2C3A5A" stroke="#2C3A5A"/>
<path d="M3.01618 16C3.01618 16.1245 2.91527 16.2254 2.79081 16.2254C2.66633 16.2254 2.56543 16.1245 2.56543 16C2.56543 15.8756 2.66633 15.7747 2.79081 15.7747C2.91527 15.7747 3.01618 15.8756 3.01618 16Z" fill="#2C3A5A" stroke="#2C3A5A"/>
<path d="M14.2213 17.774L11.256 16.8365C10.7559 16.6784 10.7056 16.0026 11.1769 15.7746L20.3053 11.3593C20.7719 11.1336 21.2834 11.5742 21.117 12.0583L18.76 18.9137C18.6525 19.2262 18.2998 19.3857 17.9884 19.2627L16.3813 18.6276M14.2213 17.774V20.1263C14.2213 20.7112 15.0073 20.9217 15.3092 20.4176L16.3813 18.6276M14.2213 17.774L16.3813 18.6276M14.2213 17.774L20.8763 11.5434" stroke="white" stroke-linecap="round" stroke-linejoin="round"/>
</svg>
